<svg xmlns="http://www.w3.org/2000/svg" xmlns:xlink="http://www.w3.org/1999/xlink" clip-rule="evenodd" fill-rule="evenodd" preserveAspectRatio="xMidYMid meet" stroke-linejoin="round" stroke-miterlimit="2" version="1.0" viewBox="-0.0 0.3 60.1 79.5" zoomAndPan="magnify" style="fill: rgb(125, 208, 91);" original_string_length="2617"><g><g id="__id67_s2oxo0zopx"><path d="M5016.54,1634.11L5030.77,1634.11C5026.4,1669.02 5007.57,1819.67 4999.87,1881.31C4998.38,1893.16 4988.31,1902.06 4976.37,1902.06C4935.9,1902.06 4859.41,1902.06 4818.94,1902.06C4807,1902.06 4796.93,1893.16 4795.44,1881.31C4795.44,1881.31 4764.54,1634.11 4764.54,1634.11C4764.54,1634.11 4985.54,1634.11 4985.54,1634.11C4989.12,1634.11 4992.04,1631.19 4992.04,1627.61C4992.04,1624.02 4989.12,1621.11 4985.54,1621.11L4757.18,1621.11C4755.32,1621.11 4753.54,1621.91 4752.31,1623.31C4751.07,1624.7 4750.5,1626.56 4750.73,1628.41C4750.73,1628.41 4773.8,1812.98 4782.55,1882.92C4784.84,1901.28 4800.44,1915.06 4818.94,1915.06C4859.41,1915.06 4935.9,1915.06 4976.37,1915.06C4994.87,1915.06 5010.47,1901.28 5012.77,1882.92C5021.51,1812.98 5044.58,1628.41 5044.58,1628.41C5044.81,1626.56 5044.24,1624.7 5043,1623.31C5041.77,1621.91 5039.99,1621.11 5038.13,1621.11L5016.54,1621.11C5012.95,1621.11 5010.04,1624.02 5010.04,1627.61C5010.04,1631.19 5012.95,1634.11 5016.54,1634.11ZM4891.15,1697.84L4891.15,1838.32C4891.15,1841.9 4894.07,1844.82 4897.65,1844.82C4901.24,1844.82 4904.15,1841.9 4904.15,1838.32L4904.15,1697.84C4904.15,1694.26 4901.24,1691.34 4897.65,1691.34C4894.07,1691.34 4891.15,1694.26 4891.15,1697.84ZM4816.14,1698.62L4827.68,1838.62C4827.98,1842.19 4831.12,1844.85 4834.69,1844.56C4838.27,1844.26 4840.93,1841.12 4840.64,1837.55L4829.1,1697.55C4828.8,1693.97 4825.66,1691.31 4822.08,1691.6C4818.51,1691.9 4815.85,1695.04 4816.14,1698.62ZM4964.29,1697.55L4952.75,1837.55C4952.46,1841.12 4955.12,1844.26 4958.69,1844.56C4962.27,1844.85 4965.41,1842.19 4965.71,1838.62L4977.25,1698.62C4977.54,1695.04 4974.88,1691.9 4971.31,1691.6C4967.73,1691.31 4964.59,1693.97 4964.29,1697.55ZM4848.75,1576.78L4753.26,1602.37C4749.8,1603.29 4747.74,1606.86 4748.67,1610.33C4749.59,1613.79 4753.16,1615.85 4756.63,1614.92L5028,1542.21C5031.47,1541.28 5033.53,1537.71 5032.6,1534.25C5031.67,1530.78 5028.1,1528.72 5024.64,1529.65L4929.15,1555.24L4921.74,1527.59C4920.81,1524.12 4917.25,1522.07 4913.78,1523L4845.94,1541.17C4842.47,1542.1 4840.41,1545.67 4841.34,1549.14L4848.75,1576.78ZM4916.59,1558.6L4910.87,1537.24C4910.87,1537.24 4855.58,1552.05 4855.58,1552.05L4861.31,1573.41L4916.59,1558.6Z" transform="matrix(.20237 0 0 .20237 -960.81 -307.692)" style="fill: inherit;"/></g></g></svg>