<svg xmlns="http://www.w3.org/2000/svg" xmlns:xlink="http://www.w3.org/1999/xlink" preserveAspectRatio="xMidYMid meet" version="1.0" viewBox="-0.5 -1.5 80.8 80.3" zoomAndPan="magnify" style="fill: rgb(125, 208, 91);" original_string_length="1650"><g fill-rule="evenodd" id="__id65_s2oxo0zopx"><path d="m54.962 37.281 17.137-10.262 7.6785 14.835c1.8547 8.1052-8.3091 11.08-16.47 10.596l-8.3462-15.169z" transform="matrix(.96875 0 0 .98751 1.25 -.25)" style="fill: inherit;"/><path d="m51.067 47.877-9.0138 15.95 9.0138 16.173 0.22256-6.4693h8.2349c3.0046 0.26025 6.8995-1.7103 8.3462-4.5731l10.572-19.408c-3.4868 3.4577-7.9704 4.35-13.131 4.35h-13.91l-0.33385-6.0231z" transform="matrix(.96875 0 0 .98751 1.25 -.25)" style="fill: inherit;"/><path d="m30.928 28.212-17.269-10.037 9.2131-13.929c6.1698-5.5594 13.698 1.9035 17.237 9.2895l-9.1809 14.677z" transform="matrix(.96875 0 0 .98751 1.25 -.25)" style="fill: inherit;"/><path d="m42.062 26.482 18.288 0.15706 9.7324-15.749-5.7511 2.945-3.9971-7.2164c-1.2314-2.7593-4.8408-5.216-8.0402-5.0942l-22.061 0.156c4.7086 1.3772 7.6632 4.8732 10.168 9.3957l6.7518 12.19-5.0918 3.2161z" transform="matrix(.96875 0 0 .98751 1.25 -.25)" style="fill: inherit;"/><path d="m0.44401 27.381 5.3508 4.1012-5.036 9.4644c-2.518 4.3641 1.8078 8.6156 4.5639 10.095 2.7133 1.4568 6.9246 1.63 10.859 1.5774l7.082-11.357 5.3508 2.8393-9.2852-16.878-18.885 0.15774z" transform="matrix(.96875 0 0 .98751 1.25 -.25)" style="fill: inherit;"/><path d="m1.2309 49.307 11.488 20.822c2.3082 2.8919 6.6623 3.5754 11.174 3.4703h12.118v-19.717l-22.977-0.15774c-3.5672 0.21031-8.236-0.5258-11.803-4.4167z" transform="matrix(.96875 0 0 .98751 1.25 -.25)" style="fill: inherit;"/></g></svg>